<?xml version="1.0" encoding="utf-8"?>
<svg width="1044.9128px" height="730.2327px" viewBox="0 0 1044.9128 730.2327" version="1.1" xmlns:xlink="http://www.w3.org/1999/xlink" xmlns="http://www.w3.org/2000/svg">
  <path d="M234.434 136.513C178.698 113.013 78.1829 112.388 12.4324 174.514C-53.3181 236.639 172.057 256.888 216.433 395.514C260.808 534.14 108.183 743.516 189.935 729.018C271.683 714.518 323.059 552.142 444.435 529.516C565.809 506.891 682.687 763.268 782.438 674.517C882.189 585.767 1070.31 531.765 1041.43 451.514C1012.56 371.263 713.434 435.64 666.934 353.514C620.434 271.388 918.558 191.263 885.432 105.013C852.307 18.7627 646.183 -16.8625 534.432 8.51269C422.682 33.8879 423.434 213.514 364.434 230.514C305.433 247.514 290.171 160.014 234.434 136.513Z" id="Vector" fill="none" fill-rule="evenodd" stroke="#808080" stroke-width="1" />
</svg>